<svg xmlns="http://www.w3.org/2000/svg" version="1.1" xmlns:xlink="http://www.w3.org/1999/xlink" xmlns:svgjs="http://svgjs.dev/svgjs" width="2000" height="530" viewBox="0 0 2000 530"><g transform="matrix(1,0,0,1,-1.2121209501382282,0.47744983664125584)"><svg viewBox="0 0 396 105" data-background-color="#ffffff" preserveAspectRatio="xMidYMid meet" height="530" width="2000" xmlns="http://www.w3.org/2000/svg" xmlns:xlink="http://www.w3.org/1999/xlink"><defs></defs><g id="tight-bounds" transform="matrix(1,0,0,1,0.24000005187269835,-0.09458911857987573)"><svg viewBox="0 0 395.52 105.18917491749174" height="105.18917491749174" width="395.52"><g><svg viewBox="0 0 395.52 105.18917491749174" height="105.18917491749174" width="395.52"><g><svg viewBox="0 0 395.52 105.18917491749174" height="105.18917491749174" width="395.52"><g><svg viewBox="0 0 395.52 105.18917491749174" height="105.18917491749174" width="395.52"><g><svg viewBox="0 0 395.52 105.18917491749174" height="105.18917491749174" width="395.52"><g transform="matrix(1,0,0,1,0,0)"><svg width="395.52" viewBox="2.450000047683716 -37.75 181.79000854492188 48.349998474121094" height="105.18917491749174" data-palette-color="#000000"><path d="M2.45 0L2.45-2.7 6.1-2.7 6.1-32.2 2.45-32.2 2.45-34.9 12.85-34.9 22.05-15.35 22.2-15.35 31.45-34.9 41.65-34.9 41.65-32.2 38-32.2 38-2.7 41.65-2.7 41.65 0 28.45 0 28.45-2.7 32.1-2.7 32.1-29.4 31.85-29.4 29.35-23.5 20.7-5.65 12.1-23.5 9.6-29.4 9.35-29.4 9.35-2.7 13-2.7 13 0 2.45 0ZM50.25 10.6L50.25 10.6Q47.55 10.6 46.17 9.35 44.8 8.1 44.8 6.25L44.8 6.25Q44.8 4.7 45.62 3.83 46.45 2.95 47.95 2.95L47.95 2.95Q49.35 2.95 50.12 3.8 50.9 4.65 50.9 5.95L50.9 5.95Q50.9 6.7 50.57 7.28 50.25 7.85 49.85 8.1L49.85 8.1 49.85 8.3Q50.1 8.4 50.32 8.4 50.55 8.4 50.9 8.4L50.9 8.4Q53.6 8.4 55.55 3.35L55.55 3.35 56.35 1.15 46.85-23.3 44.35-23.3 44.35-26 56.2-26 56.2-23.3 52.85-23.3 59.05-5.95 59.3-5.95 65.45-23.3 62.15-23.3 62.15-26 71.3-26 71.3-23.3 68.8-23.3 58.35 3.6Q57.8 4.95 57.07 6.23 56.35 7.5 55.37 8.47 54.4 9.45 53.15 10.03 51.9 10.6 50.25 10.6ZM71.19 7.15L84.84-37.4 88.44-37.4 74.8 7.15 71.19 7.15ZM107.49 0.6L107.49 0.6Q103.99 0.6 101.22-0.73 98.44-2.05 96.49-4.42 94.54-6.8 93.52-10.13 92.49-13.45 92.49-17.45L92.49-17.45Q92.49-21.8 93.62-25.18 94.74-28.55 96.69-30.85 98.64-33.15 101.32-34.33 103.99-35.5 107.09-35.5L107.09-35.5Q110.34-35.5 112.32-34.4 114.29-33.3 114.99-31.85L114.99-31.85 115.24-31.85 115.24-34.9 119.79-34.9 119.79-24.3 115.24-24.3 115.24-26.75Q115.24-29.3 113.27-30.83 111.29-32.35 107.89-32.35L107.89-32.35Q105.64-32.35 103.97-31.58 102.29-30.8 101.22-29.38 100.14-27.95 99.59-25.98 99.04-24 99.04-21.65L99.04-21.65 99.04-13.85Q99.04-8.7 101.62-5.95 104.19-3.2 108.64-3.2L108.64-3.2Q112.04-3.2 114.37-4.98 116.69-6.75 117.79-9.6L117.79-9.6 120.14-8.35Q119.59-6.7 118.52-5.1 117.44-3.5 115.84-2.23 114.24-0.95 112.14-0.18 110.04 0.6 107.49 0.6ZM131.14-30.85L131.14-30.85Q129.54-30.85 128.64-31.78 127.74-32.7 127.74-34.15L127.74-34.15 127.74-34.45Q127.74-35.9 128.64-36.83 129.54-37.75 131.14-37.75L131.14-37.75Q132.74-37.75 133.64-36.83 134.54-35.9 134.54-34.45L134.54-34.45 134.54-34.15Q134.54-32.7 133.64-31.78 132.74-30.85 131.14-30.85ZM124.94 0L124.94-2.7 128.34-2.7 128.34-22 124.94-22.65 124.94-24.85 133.94-26.6 133.94-2.7 137.34-2.7 137.34 0 124.94 0ZM149.09 0.4L149.09 0.4Q146.24 0.4 145.09-0.8 143.94-2 143.94-4.6L143.94-4.6 143.94-23.1 140.54-23.1 140.54-26 141.39-26Q143.24-26 143.94-26.65 144.64-27.3 145.09-28.55L145.09-28.55 146.64-32.95 149.54-32.95 149.54-26 155.79-26 155.79-23.1 149.54-23.1 149.54-2.85 155.79-2.85 155.79-0.65Q154.94-0.25 153.06 0.08 151.19 0.4 149.09 0.4ZM163.19 10.6L163.19 10.6Q160.49 10.6 159.11 9.35 157.74 8.1 157.74 6.25L157.74 6.25Q157.74 4.7 158.56 3.83 159.39 2.95 160.89 2.95L160.89 2.95Q162.29 2.95 163.06 3.8 163.84 4.65 163.84 5.95L163.84 5.95Q163.84 6.7 163.51 7.28 163.19 7.85 162.79 8.1L162.79 8.1 162.79 8.3Q163.04 8.4 163.26 8.4 163.49 8.4 163.84 8.4L163.84 8.4Q166.54 8.4 168.49 3.35L168.49 3.35 169.29 1.15 159.79-23.3 157.29-23.3 157.29-26 169.14-26 169.14-23.3 165.79-23.3 171.99-5.95 172.24-5.95 178.39-23.3 175.09-23.3 175.09-26 184.24-26 184.24-23.3 181.74-23.3 171.29 3.6Q170.74 4.95 170.01 6.23 169.29 7.5 168.31 8.47 167.34 9.45 166.09 10.03 164.84 10.6 163.19 10.6Z" opacity="1" transform="matrix(1,0,0,1,0,0)" fill="#000000" class="undefined-text-0" data-fill-palette-color="primary" id="text-0"></path></svg></g></svg></g></svg></g></svg></g></svg></g></svg><rect width="395.52" height="105.18917491749174" fill="none" stroke="none" visibility="hidden"></rect></g></svg></g></svg>